/* XPM */
static char *alarm_clock[] = {
/* columns rows colors chars-per-pixel */
"119 128 33 1",
"  c #090808",
". c gray19",
"X c #690808",
"o c #533433",
"O c #39464E",
"+ c #4F4E4E",
"@ c #6F6F6F",
"# c #A40505",
"$ c #9C301B",
"% c #E00906",
"& c #F3311D",
"* c #A54E20",
"= c #F15130",
"- c #F17326",
"; c #A06F52",
": c #F89216",
"> c #FAAF13",
", c #FCDB2C",
"< c #91837C",
"1 c #0431C1",
"2 c #0C6AE8",
"3 c #7B8381",
"4 c #1C97FB",
"5 c #5CA3F7",
"6 c #64BBFB",
"7 c #909090",
"8 c #AEB0B4",
"9 c #ED998D",
"0 c #DEB4A6",
"q c #9ED1F7",
"w c #D8D1CC",
"G c #FAFAFA",
"e c None",
/* pixels */
"eeeeeeeeeeeeeeeeeeeeeeeeeee09>:::>:9weeeeeeeeeeeeeeeeeeeeeeeeeeeeeeeeeeeeeeeeeeeeee09>::>9>0weeeeeeeeeeeeeeeeeeeeeeeeee",
"eeeeeeeeeeeeeeeeeeeeeeee0:>>,,,,,>>>::9eeeeeeeeeeeeeeeeeeeeeeeeeeeeeeeeeeeeeeeeew9:>>>,>,,>,>>>weeeeeeeeeeeeeeeeeeeeeee",
"eeeeeeeeeeeeeeeeeeeeew9>,,,,,,>,>,>>>>>:weeeeeeeeeeeeeeeeeeeeeeeeeeeeeeeeeeeeee9::>>>,>,>,,,,,,>>0eeeeeeeeeeeeeeeeeeeee",
"eeeeeeeeeeeeeeeeeeee>>,,,,,,,,,>,>,>>>>::weeeeeeeeeeeeeeeeeeeeeeeeeeeeeeeeeeee::>>>>>>>,,,,,,,,,,,>0eeeeeeeeeeeeeeeeeee",
"eeeeeeeeeeeeeeeeee0:,,,,,,,,,,,,,,>>>>>:>-weeeeeeeeeeeeeeeeeeeeeeeeeeeeeeeeee->:>>>>,,,,,,,,,,,,,,,,:weeeeeeeeeeeeeeeee",
"eeeeeeeeeeeeeeee9>,,,G,GGGGGG,G,,,>,>>>>:::eeeeeeeeeeeeq868686q6weeeeeeeeeee:::>>>>>,,,,G,GGGGGGG,,,,,:weeeeeeeeeeeeeee",
"eeeeeeeeeeeeeee:,,,GGGGGGG,G,G,,,,,,>>>>:>:9eeeeeeeee66qqqqqqqqqq5weeeeeeee0:::>>>>,,,,,,G,,GGGGGGGG,,,,0eeeeeeeeeeeeee",
"eeeeeeeeeeeeew>,,,>,,GGGGGG,G,G,,,,>,>>>>:::weeeeeew56q66q66q66q6q66eeeeeee:::>>>>>>,,,,,,G,G,GGGGw,,,,,,9eeeeeeeeeeeee",
"eeeeeeeeeeee0>,,>,,::>GGG,GG,G,,,,,,>>>>:::::eeeeee56666666666666666qeeeee9::::>>>,,,,,,G,G,GGGGG>::>,>,,,:weeeeeeeeeee",
"eeeeeeeeeee9,,,,,,,,--,GGGG,G,G,,,,,>,>>>>:::weeeee566556565656565658eeeee::::>>>>>>,,,,,,G,G,GG,-:>,,,,,,,>weeeeeeeeee",
"eeeeeeeeee:,,>,GG,,,:->,G,G,G,,,,,,,>>>>>::::9eee09244444444444444447wwee0:::>:>>,>,,,,,,G,G,GGG,-:>,GG,,>,,,0eeeeeeeee",
"eeeeeeeee>,,>,,,GG,>->,,GG,G,G,,,,,>,,>>>>:::--=&=-24444444444444442;===9-::::>>>>>,,,,,,,,G,G,G,>-,,,,G,,>,,>0eeeeeeee",
"eeeeeeee9,,,>>,,,,,>>,GGGG,G,,,,,,,,>>>>>>:::--9999@2444444444444422709:-=:::>>>>,,>,,,,,G,G,GGG,,>:,,,,,,>,,,>weeeeeee",
"eeeeeee:,,Gw:>,,,,>>,,GGGG,G,G,,,,,,,,>>:>:::--:9:03224q6q66666q44229:99--::::>>>>>,,,,,,,,G,G,GGG,>>,,,,>:>G,,>weeeeee",
"eeeeee9,,,G,--:>>:>,GGG,G,G,,,,,,,,,>>>>>>:::--9-999224qqeeeeewq422399----:::>:>>,>,,,,,,,,,G,GGGGG,>>>>::->G,,,>weeeee",
"eeeee9,,,GG,:--:>,GGGGGG,G,,G,,,,,,,>,>>>>:::-=----93246qqeweqq64229-9----:::>>>>,>,,,,,,,,,G,G,GGGGG,>:---,GG,,,:eeeee",
"eeeew>,,GG,GG>>,,GGGG,G,G,G,,,,,,,,>,>>>>::>>-=---9-92446qqqqqq442<-----=->::>:>>>,>,,,,,,,,,G,G,G,GGG,,>>,GGGG,,,9eeee",
"eeee:,,,G,G,G,,G,G,G,GG,G,,,,,,,,,,,>,>>>::>9-==-=---;24466qq6442@---=-==*9>::>>>>>,,,,,,,,,,,G,G,GG,GGG,,G,G,G,,,>weee",
"eee0>,,G,G,GG,G,GG,GG,G,,,,,,,,,,,,>,>>>>::>:*===-===*12444444421*=-======:,::>>>>,>,,,,,,,,,,,G,G,G,G,G,GG,G,G,,,>:eee",
"eew:,>,,G,G,G,G,G,G,,G,,,,,,,,,,,,,,>>>>>:>w-=&======*11222422211$======&=-0:::>>>>,>,,,,,,,,,,,,,G,G,G,G,G,G,G,G>,>0ee",
"ee:>>,,G,,G,,G,G,G,G,,,,,,,,,,,,,,>>,>>>::>>-&&&&=&=&$O1212122121**&==&&&&=>,::>>>>,>,,,,,,,,,,,,G,G,G,G,G,G,G,G,,>>:ee",
"ew:>>,,,G,,,G,,,,,,,,,,,,,,,,,,,,,,>>>>>::w:*&&&&&&=&&$222242222$$&=&&&&&&*:w::>>>>>,,,,,,,,,,,,,,,,,,,,,,,,,,,,,,>>>9e",
"e:>>>,,,,,,,,,G,,,,,,,,,,,,,,,,,,>>,>>>:>>0-&%&&&&&&&$$#o2242OOX$%&&&&&&&%&=>0>:>>>>>,>,,,,,,,,,,,,,,,,G,,,,,,,,,,>>>:e",
"e:>>>,,,,,,,,,,,,,,,,,,,,,,,,,,,,>,>>>:>:w:*%%&%%&%&%&%$$X$XXX$#$&%&%&%%&%%*:w>:>>>>,>,,,,,,,,,,,,,,,,,,,,,,,,,,,,>>>:0",
"0::>>>,,,,,,,,,,,,,,,,,,,,,,,,,>,>>>>>>:,9-%%%%%&%%%%%%%%##$#$%%%%&%%%&%%%%%*:,:>:>>>,>,,,,,,,,,,,,,,,,,,,,,,,,,,>>>>>>",
">:>:>>>>,,,,,,,,,,,,,,,,,,,,,,>,>,>>>>:>>-$%%%%%%%%%%&%%%%%%%%%%%%%%%%%%%%%%%-9>:>>>>>,>>,,,,,,,,,,,,,,,,,,,,,,,,>>>:::",
"-:::>>>,>,,,,,,,,,,,,,,,,,,,,>,>>>>>>:>0-*%%%%%%%%%%%%&&&&&=&&&=&&%%%%%%%%%%%$:0>:>>>>>>,>,,,,,,,,,,,,,,,,,,,>>>>>>::::",
"::>>:>>>>>>>>,,,,,,,,,,,,,,,>,>,>>>>:>0>*%%%%%%%%&==-=-------9-----==&&%%%%%%%$:,>:>>>>>,>,>,,,,,,,,,,,,,,>,>,>>>:>:>::",
"-::>:>:>>>>,>,>,,,,,,,,,>,>,>>>>>>>:>>>*$%%%%&&===&&&&&&=&=&&&&&&&&&=====&%%%%#*>0>:>>>>>>,>,>,,,,,,,,,>,>,>>>>>>>:>>:-",
"-:>G::>>>>>>>>,>>,>>,>,>,>,>>,>>>>>>>9-$%%%&&&&%%%&===-=-=-----===&&&&%%%&&&%&%$*:>>:>>>>>>>,>,>,>,>,>>,>,>>>>>>>::w0-:",
":-:G>:::>>>>>>>>,>>,>>>,>>>>>>>>>:>>:*$%&%%%%%%==-9-999909099999999--==&&%%%%&%%&*:>>:>>>>>>>>>,>>,>>,>>>>>>>>>:::>G>:-",
"9-:ww>::::>>>>>>>>>>>,>>>>>>>>>>::>:**%%%%%&&=-=9-999999999999-9---------=&%%%%%%$*->>:>>>>>>,>>>>>,>>>>>>>>>>:>::ww:-:",
"w:->w,:::>:>>>>>>>>>>>>>>>>>>:::>>-*$%%%%&&===-9-9-99-99-9---=-===&&&&&&&====&%%%%$*:>>::>>>>>>>>>>>>>>>>>>>:>:::>w,--0",
"e:--00>:::>::>>>>>>>>>>>>>>:>>:>>-*$##%%&&&==-=-------===&=&&&&&&&&&&%&%&%&&&&=&%###*-:>:>::>>>>>>>>>>>>>>:>::::9,0:-:e",
"ee-::>0>::::::>:>>>>>>>>>:>:::::**$#%%%&&&=====&&&&%####XXXXX#XX###%%%%%%%%%%&%&&&&#X$*:::>:::>>>>>>>>:>:::::::>00:--we",
"ee0--:>9>:::::::::::::::::::::;*$X%%%%%&&&&&&&%#XX X                XX##%%%%%%%%%%&&%#$*-::>::::::::::::::::::>9>::-9ee",
"eee:--::::::::::::::::::::::-**##%%%&&%&%%%%XX      .X.oo+++o+ooo.X      XX%%%%%&%%%&&#X$*-::::::::::>:::::::::::---eee",
"eeee-----::-:-::::::::::::-;*$##%%%&%%%%%#X     oo@@@3387@<78873333@@o. X   X#%%%%&%%&&%X$**-:::::::::::::-:-:-:---weee",
"eeee0--:-----:--:-:::::--**$###%%&%%%%%X    .o+<@3@@@@we8+@weee@+@@@@33@+OX    X%%%%%%%&&#X$**-:::::-:-:-:-:--:---9eeee",
"eeeee0*=--:-:--:-:---*-**$###%%%&%%%#X   .o+@@@+@+@++@8w8+@<@3w8@+++@++@@@@+o.   X#%%%%%%&%##$$**---:-:-:------*=9eeeee",
"eeeeeee9**=-----=-****$#%%##%%&%%%#   . +@@@+@+@++@+@+@87+++++w8+@@++@<+@+@@@@+.    #%%%%%&%#%##$$**-*-------**:weeeeee",
"eeeeeeeew0;$$$*$*$$$##%%%##%%%%%#X X ..<8+++@++@+@+@++@87+@@+3w<+++@+73++@++@8@@o.   X#%%%%&%%%%###X$$*$*$*$*0weeeeeeee",
"eeeeeeeeee0XX#X#X####%%%##%&%%%X  . O+@78+@+++@++++++@+83+++388++@+++7@+@+++30@+3+o.   X%#%%%%%%%%####X#X#XX*eeeeeeeeee",
"eeeeeeeeee;#####%##%%%&$#%%%%#X . .O@@+@@+++@++@++@+@++<@++@77++++++@3++++@++3+++@@+..  X##%%%%%%%%%#%######$eeeeeeeeee",
"eeeeeeeeee$########%%%##%%%%#  . o++++++++@++++++@++++@77+@88787+@++7@+++++++++@+++@+o.   ###%%%%%%%#########weeeeeeeee",
"eeeeeeeeee##X####%%%%##%%%%X  ...@+++++++++++++++++++++3@++3<3<3+++@7++@+++@++++++++++O..  X##%%%%%%%#####X##weeeeeeeee",
"eeeeeeeeewX##X####%&##%%%%X .. o++++++++++++++++++++++++++++O+O+++O<@++O++++++++++++++++..  X##%%%%%%#####X#X9eeeeeeeee",
"eeeeeeeee9#X##X#%%%##%%%#X . .+++++++++++87++++++++++++++++++++++++7+O++++++++++++++++++o... X#X%%%%%%#####X#;eeeeeeeee",
"eeeeeeeee<X#X###%%##%%%%X  . oO+++++++++O3w3.++++++++O++O++O++O++O33++++++++O++++O+++++++O .  X##%%%%%%#X#X#X*eeeeeeeee",
"eeeeeeeee*XX#XX%%###%%%X .. OO++OOO+O+O+Oo@w3O++O+O+O+O+OoO+o++O++7OoO+O+OO++O+O++O+OO+O+Oo. . X##%%%%%##X#XX*eeeeeeeee",
"eeeeeeeee$X#X##%###%%%X .  O+++O+oO+OoOoO+.38+oO+Oo+O+oO+O+OO+oOo@@+O+OoO+oOOoO+OoO+oO+O+O++. . X#X%%#%%#X#XX$eeeeeeeee",
"eeeeeeeee$XXXX%%##%%%X   ..OoOoO+OOoO+O+oOOo78OOoOOo+.+Oo++O+oO+O7OoOoOoOO+oO+oOOoO+OOoOoOOo..   ###%%%%#XX#X$eeeeeeeee",
"eeeeeeeeeXX#X#%###%%# .. .O+OoOOoOoOOoOOOOoO+87O.O+OO@.@++@o@.@O@3oOOOOOoOOOOOOoOOOoOoOOOoOOo... X###%%%%#XXXXeeeeeeeee",
"eeeeeeeewXXXX%%##%%#X.  .+Oo.Oo.OoOO.OOoOoOO.+w3+oO@o@O@++@O@O@o3++@.+oOOoOoOoOOoOoOOOOoOoOoO+.   X##%%#%#XXXXeeeeeeeee",
"eeeeeeeewXXX%%###%%X   .O8+.OoOO.O.oOo.O..OoO.@03@.@.Oo.O....oOO@.@O+@.+O....O.O.O.Oo.O.O.O.@8+ .  X##%%%%#XXXweeeeeeee",
"eeeeeeeewXXX%###%%# . . O3+.O...Oo.O.O.OoO..+.O7w@..O..Oo.OoO..@@...+O@@.+O3+..o.Oo...Oo.O..+3O. . X##%%#%#XXXweeeeeeee",
"eeeeeeeewXX#%###%%X .  ....o.O.o..O..O....OoO3o.@8O..oO..O.O.O.3o.O...+.@+8G+O.O...OO..O.oO....O.   X#X%%%%XXX0eeeeeeee",
"eeeeeeee0XX%###%%#X   .Oo.....O..O....o.O..@+.O..77o..........@@...o....@ww+......O..o........... . X###%#%XXX0eeeeeeee",
"eeeeeeee0XX%###%%X . .....O..............++O+....O83O...O.....@O.......3w8O.@.........O.......... .  ###%#%#XX8eeeeeeee",
"eeeeeeee8X#%##%%#.    ..................+O+.......O83........+@......+w8@..+Oo+................... . X%X%%#%XX8eeeeeeee",
"eeeeeeee8X####%%#  . ...................++........ +8@.......@O.....@w7.....O@....................    ##%%#%# 9eeeeeeee",
"eeeeeeee8X%###%%X    .................O+............+0+ ... O@.....7w@. .. ...++................... . #%#%#%#X8eeeeeeee",
"eeeeeeee8X%###%#X . .. . .. .. .. .. ..O+. .. . .. . @8O....@+.  +w8O ........+.. .. . .... ... ..    X%#%%#%X8eeeeeeee",
"eeeeeeee0X%##%%%     ....... ..... ...+o ... .... ... @3.. .@. .3w@. ... . . ..+O. ...... ... .. ...   %#%#%#X8eeeeeeee",
"eeeeeeee8##%#%%#    . . .  .. . . ....O.. . .. . .. ...7<. @O +87.. .. .. .. . Oo.. . . .. . .. .     .##%%#%X8eeeeeeee",
"eeeeeeee8#%##%%$   .  .  .. .. . .. ..+... .. . . . .   7@@@.@w@.  .. . . .. ..oO. . . . . .. .O@@O    ###%#%X0eeeeeeee",
"eeeeeeee0###%#%X    3Gw@ . . . . . ..O.  . . .          @8ww83o         . . .  .OO. . . . .   3GGGw.   #%#%%#Xweeeeeeee",
"eeeeeeee8%#%#%%X   +G38G+ . . . . . ... .       .      .8w8ww7               . .o. . . . . .. ++ @G+   X%#%#%#weeeeeeee",
"eeeeeeeew%#%#%%X   88  w8   .  . .  ...              . +837337.       .         ... .  . .   . ..+w.   X%#%#%Xeeeeeeeee",
"eeeeeeeew%#%#%#X   87  88  .  .      .                 O+++++@.                 .     .   . .  @ww3    X%#%#%$eeeeeeeee",
"eeeeeeeew%#%%#%X   Ow8w87 .         O+.                ..OOOo.                  +O      .     ...38O   X%%#%%*eeeeeeeee",
"eeeeeeeee%#%#%#X    O@+8@                               .o ..                   .           .     7@   X%#%#%;eeeeeeeee",
"eeeeeeeee%%#%%%X      @8.           .+.                 @ ..                   ..O            +O.+7O   X%%##%-eeeeeeeee",
"eeeeeeeee&#%##%X    777.              .                ++ .O                    .             @7777    #%#%%#9eeeeeeeee",
"eeeeeeeee=#%#%%#    .                .                O7. .@                                    .      ##%##%0eeeeeeeee",
"eeeeeeeee-%#%#%#                      O.              @+ +++O+.+++             +.                      %#%#%%weeeeeeeee",
"eeeeeeeee9%%#%#%                        .             @O.+@Oo+++O+            .                       X#%##%%weeeeeeeee",
"eeeeeeeeew%%##%#X                      +             .@.O.O+..O...            ..                      X#%#%%&eeeeeeeeee",
"eeeeeeeeee%%%#%##                       ..            .   ..  ..            ..                        #%##%%=eeeeeeeeee",
"eeeeeeeeee&%#%#%#                         .               ..               .                          %#%#%%9eeeeeeeeee",
"eeeeeeeeee9%%#%#%X                       ..               ..                O                        X%##%%%eeeeeeeeeee",
"eeeeeeeeee0%%%#%##                         O.             .O              O                          ##%#%%=eeeeeeeeeee",
"eeeeeeeeeee=%%#%#%                           +            ..            .  .                        X%##%%%9eeeeeeeeeee",
"eeeeeeeeeee9%%%##%#       O.                 . .          ..          .. .                   O.     ###%%%&eeeeeeeeeeee",
"eeeeeeeeeeee&%%%#%#X      w+                   . . .      ..        .                        8O    X%##%%%9eeeeeeeeeeee",
"eeeeeeeeeeee0%%%%###      .                        . .    +O    . ..                               ###%%%&eeeeeeeeeeeee",
"eeeeeeeeeeeee=%%%#%#X                                . O  +O. .                                   ##%#%%%9eeeeeeeeeeeee",
"eeeeeeeeeeeee0%%%%#%#                                     O.                                     .###%%%&eeeeeeeeeeeeee",
"eeeeeeeeeeeeee;%%%%#%#                                    ..                                    X###%%%%8eeeeeeeeeeeeee",
"eeeeeeeeeeeeeee%%%%%##$                                   ..                                   .X##%%%%=eeeeeeeeeeeeeee",
"eeeeeeeeeeeeeee9%%%%###$                                                                      .###%%%%%eeeeeeeeeeeeeeee",
"eeeeeeeeeeeeeeee*%%%%%##o                                                                    .X##%%%%%8eeeeeeeeeeeeeeee",
"eeeeeeeeeeeeeeeew&%%%%%##o                                                                   $##%%%%%;eeeeeeeeeeeeeeeee",
"eeeeeeeeeeeeeeeweq%%%%%#%#o.                                                               .$X#%%%%%;eeeeeeeeeeeeeeeeee",
"eeeeeeeeeeeeeeeewe8#%%%%%##Xo                             .8G+               .            oX##%%%%%*weweeeeeeeeeeeeeeee",
"eeeeeeeeeeeeeeeeeww8%%%%%%%#$o           @8              .G8@               +w.          +X#%%%%%%$wwweeeeeeeeeeeeeeeee",
"eeeeeeeeeeeeeeewweww;#%%%%%##X+.         O<              88.                .7         .*X#%%%%%%$8wweweeeeeeeeeeeeeeee",
"eeeeeeeeeeeeeeeeewww8;#%#%%%%##$O                       .w8ww+                       .+o##%%%%#%$88wweweeeeeeeeeeeeeeee",
"eeeeeeeeeeeeeeewwww888<#%#%%%%##X$O                     .8@ 38                      +o##%%%%#%#*788wwweeeeeeeeeeeeeeeee",
"eeeeeeeeeeeeeeeeeeww8873$#%##%%%%#$++                   .8  .8.                  .+*X#%%%%#%#%+788wwweweeeeeeeeeeeeeeee",
"eeeeeeeeeeeeeeewewwq88773o%#%#%#%###$++                  73.@7                 .++$X%%#%##%##+<7888wweeeeeeeeeeeeeeeeee",
"eeeeeeeeeeeeeeeewewww8873@o#%#%#%%%%##$*+.               .787.               O+*X##%#%%##%#X@377808eweweeeeeeeeeeeeeeee",
"eeeeeeeeeeeeeeeeewwww887<@@+X#####%#%###$o;+.                             O+;$$##%%%#%##%#o@@@7888wweeeeeeeeeeeeeeeeeee",
"eeeeeeeeeeeeeeeeeeeww88873@@@o#######%#%###$$*+++..                 .O+++*$$###%#%######X+@@37788wwweweeeeeeeeeeeeeeeee",
"eeeeeeeeeeeeeeeeewewww88773@+++o######%#%%#%####$*@;@@+++OOOO+++@@@;**$####%#%########XO+@@@<788wwweweeeeeeeeeeeeeeeeee",
"eeeeeeeeeeeeeeeeeewewww887733@+OOoX##########%#####X##$$*$**$*$$$###X####%##########XO+++@@3788qwweweeeeeeeeeeeeeeeeeee",
"eeeeeeeeeeeeeeeeeeeweww8w8773@@@++ooX##########%##%#################%#%##########XXoO++@@337888wwwweeeeeeeeeeeeeeeeeeee",
"eeeeeeeeeeeeeeeeeeeewwww88877<@+@+++O.XXX############%#%#####################X#XooO+++@@377888wwwweweeeeeeeeeeeeeeeeeee",
"eeeeeeeeeeeeeeeeeeeeeweww8888773@@+++++ooXXX#X##X####X#X############X#X#X#XXXoo.+O+@@@33<7888wwweeeeeeeeeeeeeeeeeeeeeee",
"eeeeeeeeeeeeeeeeeeeeewewwww888773<@@@+++OOO..XXXX#X#X#X#X#XX#XXX#XX#X#XXXXooOo++++@@@3778888wwwweweeeeeeeeeeeeeeeeeeeee",
"eeeeeeeeeeeeeeeeeeeeeeewewww888877<3@@@+@++++Oooo.XXXXXXXX#XX#XXXXXXoo.oOO+O++@+@@33<77888wwwweeweeeeeeeeeeeeeeeeeeeeee",
"eeeeeeeeeeeeeeeeeeeeeeweewwwww888873<33@@@@++++OO+OOO.oooo.oo.ooooOOOo++++@+@@@33<<778888wwwweweeeeeeeeeeeeeeeeeeeeeeee",
"eeeeeeeeeeeeeeeeeeeeeeeewewwwww8888877<3@@@@@@+@++++++++O+++O+++++++++@+@@@@@@3<7778888wwwwweweeeeeeeeeeeeeeeeeeeeeeeee",
"eeeeeeeeeeeeeeeeeeeeeeeeeeewewwwww888887773<3@3@@@@@@@@+@+@+@+@+@@@@@@@3@@33777788888wwwwweweeeeeeeeeeeeeeeeeeeeeeeeeee",
"eeeeeeeeeeeeeeeeeeeeeeeeeeeewewwwww888888877777<<33@3@@3@@@@@@@3@@3333<37777888888wwwwwweweeeeeeeeeeeeeeeeeeeeeeeeeeeee",
"eeeeeeeeeeeeeeeeeeeeeeeeeeweeewewwwwwww888888878777777<7<7<7<7737777777878888888wwwwwweweeweeeeeeeeeeeeeeeeeeeeeeeeeeee",
"eeeeeeeeeeeeeeeeeeeeeeeeeeeeeweewewwwwwww8w888888887878777877778787888888880w8wwwwwweweeweeeeeeeeeeeeeeeeeeeeeeeeeeeeee",
"eeeeeeeeeeeeeeeeeeeeeeeeeeeeeeeeeeewewwwwwwww8w888888888888888888888888w8wwwwwwwwweweeweeeeeeeeeeeeeeeeeeeeeeeeeeeeeeee",
"eeeeeeeeeeeeeeeeeeeeeeeeeeeeeeeeweeeewewwwwwwwwwwwwww8w8w8w8ww8w8wwwwwwwwwwwweweeeweeeeeeeeeeeeeeeeeeeeeeeeeeeeeeeeeeee",
"eeeeeeeeeeeeeeeeeeeeeeeeeeeeeeeeeeeweeeeeeeewewwwwwwwwwwwwwwwwwwwwwwwwwwwweweweeweeeeeeeeeeeeeeeeeeeeeeeeeeeeeeeeeeeeee",
"eeeeeeeeeeeeeeeeeeeeeeeeeeeeeeeeeeeeeeeweweweweewewwewwewwwwwwwwewweweweeeweeeeeeeeeeeeeeeeeeeeeeeeeeeeeeeeeeeeeeeeeeee",
"eeeeeeeeeeeeeeeeeeeeeeeeeeeeeeeeeeeeeeeeeeeeeeeweeeeweeweweeweeweweeweeeweeeweeeeeeeeeeeeeeeeeeeeeeeeeeeeeeeeeeeeeeeeee",
"eeeeeeeeeeeeeeeeeeeeeeeeeeeeeeeeeeeeeeeeeeeeeeeeeweeeweeeeeeeeeeeeweeeweeeeeeeeeeeeeeeeeeeeeeeeeeeeeeeeeeeeeeeeeeeeeeee",
"eeeeeeeeeeeeeeeeeeeeeeeeeeeeeeeeeeeeeeeeeeeeeeeeeeeeeeeeeeeweeweeeeeeeeeeeeeeeeeeeeeeeeeeeeeeeeeeeeeeeeeeeeeeeeeeeeeeee",
"eeeeeeeeeeeeeeeeeeeeeeeeeeeeeeeeeeeeeeeeeeeeeeeeeeeeeeeeeeeeeeeeeeeeeeeeeeeeeeeeeeeeeeeeeeeeeeeeeeeeeeeeeeeeeeeeeeeeeee",
"eeeeeeeeeeeeeeeeeeeeeeeeeeeeeeeeeeeeeeeeeeeeeeeeeeeeeeeeeeeeeeeeeeeeeeeeeeeeeeeeeeeeeeeeeeeeeeeeeeeeeeeeeeeeeeeeeeeeeee",
"eeeeeeeeeeeeeeeeeeeeeeeeeeeeeeeeeeeeeeeeeeeeeeeeeeeeeeeeeeeeeeeeeeeeeeeeeeeeeeeeeeeeeeeeeeeeeeeeeeeeeeeeeeeeeeeeeeeeeee",
"eeeeeeeeeeeeeeeeeeeeeeeeeeeeeeeeeeeeeeeeeeeeeeeeeeeeeeeeeeeeeeeeeeeeeeeeeeeeeeeeeeeeeeeeeeeeeeeeeeeeeeeeeeeeeeeeeeeeeee"
};
