/* XPM */
static char *inkscape[] = {
/* columns rows colors chars-per-pixel */
"16 16 7 1",
"  c black",
"$ c #101010",
"; c #323232",
"< c #5F5F5F",
"2 c #9D9D9D",
"8 c gray100",
"9 c None",
/* pixels */
"9999999999999999",
"9999999999999999",
"9999999$$9999999",
"999999$82$999999",
"99999$2882$99999",
"9999$<2<2<;$9999",
"999      $   999",
"99            99",
"99            99",
"9999 $;$     999",
"9999   ;$  99999",
"999999     99999",
"999999    999999",
"9999999   999999",
"9999999999999999",
"9999999999999999"
};
