/* XPM */
static char *jabber[] = {
/* columns rows colors chars-per-pixel */
"64 87 27 1",
"  c #CB0505",
". c #D1231D",
"X c #D3302C",
"o c #D94A3A",
"O c #DF613C",
"+ c #DB5446",
"@ c #DF6045",
"# c #E3714C",
"$ c #E37B64",
"% c #FCB009",
"& c #F6AA30",
"* c #FDC131",
"= c #E98B55",
"- c #F5B04E",
"; c #EA9468",
": c #EFAA73",
"> c #FAC45A",
", c #F8C66F",
"< c #EB9C86",
"1 c #F0B68E",
"2 c #EFB6A5",
"3 c #F6CA91",
"4 c #F5CFB0",
"5 c #FAE0B8",
"6 c #F6DAC5",
"7 c #F9E7D4",
"8 c None",
/* pixels */
"8888888888888888888878888888888888888888888888888888888888888888",
"888888888885:;=#OXXX.oXoo=<4678888888888888888888888888888888888",
"88888885;=oX.              ...+;26888888888888888888888888888888",
"88887:@X.                       .o$27888888888888888888888888888",
"887:o.                             X+188888888888888888888888888",
"84#                                  X@2888888888888888888888888",
"4=                                     o;68888888888888888888888",
"<X                  .  . .              .@1888888888888888888888",
"=.            .oo+@##$##@@+++XX.          o:88888888888888888888",
"@          o=358888888888888874:#oX.       X;8888888888888888888",
"+.      .O488888888888888888888886<#o.      X;888888888888888888",
"+.     O18888888888888888888888888884=o.     o;88888888888888888",
"+.   .#48888888888888888888888888888872@X     o18888888888888888",
"+.  .=7888888888888888888888888888888886;o     +7888888888888888",
";  .;8888888888888888888888888888888888882o    .=888888888888888",
"1.X:888888888888888888888888888888888888882+    X;88888888888888",
"8<788888888888888888888888888888888888888882X    @78888888888888",
"888888888888888888888888888888888888888888882.   .=8888888888888",
"888888888888888888888888888888888888888888888:    +4888888888888",
"8888888888888888888888888888888888888888888887o    =888888888888",
"88888888888888888888888888888888888888888888882.   +488888888888",
"88888888888888888888888888888888888888888888888#    =88888888888",
"888888888888888888888888888888888888888888888886    +48888888888",
"888888888888888888888888888888888888888888888888#   .=8888888888",
"8888888888888888888888888888888888888888888888882    @8888888888",
"8888888888888888888888888888888888888888888888887X   .1888888888",
"8888888888888888888888888888888888888888888888888#    =888888888",
"88888888888888888888888888888888888888888888888881.   O888888888",
"88888888888888888888888888888888888888888888888886X   .288888888",
"88888888888888888888888888888888888888888888888888o    ;88888888",
"88888888888888888888888888888888888888888888888888#    @88888888",
"88888888888888888888888888888888888888888888888888#.   X78888888",
"88888888888888888888888888888888888888888888888888=.   .68888888",
"88888888888888888888888888888888888888888888888888;.    28888888",
"88888888888888888888888888888888888888888888888888:X    28888888",
"88888888888888888888888888888888888888888888888888:X    18888888",
"88888888888887336888888888888888888888888888888888;X    28888888",
"8888888888883>-->388888887588888888888888888888888=.    28888888",
"888888888884&%%%%&,888873>>,5888888888888888888888#.   .28888888",
"88888888887-%%&&-&*:883&&%%&,888888888888888888886+.   X48888888",
"88888888885&%%*78-**:>&%%%%%&78888888888888888888:X    O78888888",
"88888888884%%&:883***&%&&%%%%68888888888888888888#.    =88888888",
"88888888873%%&5885-%%%&,3,%%&58888888888888888881X    X488888888",
"8888888887>%%&8886-%%-3786&%&7888888888888888887@     #788888888",
"8888888887-%%-88884-,78884&%-888888888888888888;.    X:888888888",
"8888888888-%%>78888788888,%%>888888888888888884.     #5888888888",
"8888888888,%%,88888888886-%&388888888888888887o     X18888888888",
"88888888883%&38888888888,%%-78888888888888887@      #88888888888",
"88888888885&&48888888885&%&,8888888888888887#      +788888888888",
"88888888888-&7888888888:%%-6888888888888887$      +4888888888888",
"88888888888548888888886&%&,888888888888887=      X<8888888888888",
"8888888888888888888888-%%-888888888888887;      .;88888888888888",
"8888888888888888888887%%-488888888888887;      .;888888888888888",
"888888888888888888888-%&388888888888887;      .;8888888888888888",
"888888888888888888888--188888888888887;      X:88888888888888888",
"8888888888888888888886588888888888887;      X<888888888888888888",
"8887::888888888888888888888888888887;.     o18888888888888888888",
"888$++=7888888888888888888888888887$      +488888888888888888888",
"887o .X#48888888888888888888888888;.     #6888888888888888888888",
"887+   .#188888888888888888888888:X     #68888888888888888888888",
"888@.    +:8888888888888888888883+    .$788888888888888888888888",
"8881+     o:88888888888888888884$     ;7888888888888888888888888",
"8888:+     .=588888888888888888:X   .;88888888888888888888888888",
"88888;+     .o;3788888888888886#    $788888888888888888888888888",
"8888883@.     .o#=<<<;:;;;7888:X   +8888888888888888888888888888",
"88788887=o       ...XXXo++#888#.  .68888888888888888888888888888",
"84;1678886;o             .<888+  .;88888888888888888888888888888",
"82XX+=4888874#..       X+67884o  X588888888888888888888888888888",
"86X   X;58888886622<226668888;X  @888888888888888888888888888888",
"882.    X=2888888888888888888@. .#888888888888888888888888888888",
"8882.     .#17888888888888888#. X=888888888888888888888888888888",
"88884o       X;12678888888888#. o=888888888888888888888888888888",
"888884#.       .X+=;::1267888=. X=888888888888888888888888888888",
"8888888;o           ..oo#;288=. X;888888888888888888888888888888",
"88==48886$+.              @78=X .:888888888888888888888888888888",
"8$..o;78886=+X..          @78;X  1888888888888888888888888888888",
"8+   .#4888861=O+XXXX.XX+;6881+ .4888888888888888888888888888888",
"8$.    o1788888874<#+#:6888887=  7888888888888888888888888888888",
"86o     X;68888888888888888888:X.8888888888888888888888888888888",
"88:X      @;4888888888888888886248888888888888888888888888888888",
"8881o.      X=16888888888768888688888888888888888888888888888888",
"88886=X       .Xo@=##$@++XX+488888888888888888888888888888888888",
"8888881=X                  .288888888888888888888888888888888888",
"888888884=o.              X:888888888888888888888888888888888888",
"888888888882#+X.      . .#18888888888888888888888888888888888888",
"8888888888888871=#+++@#:7888888888888888888888888888888888888888",
"8888888888888888888888888888888888888888888888888888888888888888"
};
