/* XPM */
static char *mini_daemon_xpm[] = {
/* columns rows colors chars-per-pixel */
"16 16 15 1",
" 	c None",
".	c #2f141e",
"X	c #293041",
"o	c #384f6f",
"O	c #551c26",
"+	c #503948",
"@	c #63555b",
"#	c #728fa3",
"$	c #831e28",
"%	c #8e5961",
"&	c #907b81",
"*	c #a1979c",
"-	c #d0a6a6",
";	c #607060",
":	c #c9c700",
/* pixels */   
"          -;    ",
"     *  ***+    ",
"     O%@.$%%-   ",
"     &.OO-:;;   ",
"      %.O-*X%   ",
"      ;.O%%O$:: ",
"       @.OOO**::",
"        OO+*@*::",
"       ;.O$..:  ",
"       ;.O$O-   ",
"       ;...%    ",
"       &...-    ",
"      *@.OO*    ",
"   *@+@@X.o###; ",
" #+***+.XXo##:  ",
" *++@-          "
};
