/* XPM */
static char * mini_font_xpm[] = {
/* width height num_colors chars_per_pixel */
"10 11 3 1",
/* colors */
"       c None s None",
"#      c black",
"X      c #808080",
/* pixels */
"       ## ",
"      ###X",
"     ####X",
"    ##X##X",
"   ##XX##X",
"  ##XX ##X",
"  #######X",
" ##XXXX##X",
"##XX   ##X",
"##X    ##X",
" XX     XX",
};
