/* XPM */
static char *mini_ethereal_xpm[] = {
/* columns rows colors chars-per-pixel */
"16 16 16 1",
" 	c None",
".	c #221c17",
"X	c #2c252d",
"o	c #59534f",
"O	c #635a5d",
"+	c #717370",
"@	c #7e827e",
"#	c #83857e",
"$	c #909189",
"%	c #a29e97",
"&	c #aea99a",
"*	c #b8b1a8",
"=	c #c4bcb4",
"-	c #cdc4bd",
";	c #d8d2d1",
":	c #e7e1de",
/* pixels */
"     @@@@@+     ",
"   $%$%%%$++@   ",
"  @%*;:=*-*@O@  ",
" @%-:@XXX.%*%O@ ",
" $*:oo;;;**=&@O ",
"@$;+o::;*o$**%O@",
"@$;X*:*o.o&**%++",
"+%=X;o.O&**&&%@O",
"#$*.-+*==**&&%@+",
"@#=.&====*&&&#@+",
"++&OX==***&%%#o@",
" +#&oX$*&#%%$#O ",
" ++$&O....+$#o@ ",
"  +O@%$##$$$+@  ",
"   +OO+@@++O@   ",
"     +++O++     "
};
