/* XPM */
static char *mini_xchat_xpm[] = {
/* columns rows colors chars-per-pixel */
"16 16 2 1",
" 	c None",
".	c DarkGreen",
/* pixels */
"  ...       .   ",
"   ...     .    ",
"    ...   .     ",
"     ... .      ",
"      . .       ",
"     . ...      ",
"    .   ...     ",
"   .     ...    ",
"  .       ...   ",
"                ",
" ... . .  . ... ",
" .   . . . . .  ",
" .   ... ... .  ",
" .   . . . . .  ",
" ... . . . . .  ",
"                "
};
