/* XPM */
static char *mini_gimp_xpm[] = {
/* columns rows colors chars-per-pixel */
"16 16 15 1",
"  c None",
". c #38372b",
"X c #3f403f",
"o c #423f30",
"O c #494739",
"+ c #535249",
"@ c #615c49",
"# c #6b6655",
"$ c #747165",
"% c #837c67",
"& c #8a8473",
"* c #908d8a",
"= c #aaa396",
"- c #c3bbac",
": c #e1dfdd",
/* pixels */
"                ",
"                ",
"   -          *$",
"   -=         $#",
"   -=*&     &%@@",
"    =&$*&=#%$#@#",
"   ::=*-=$@@O+@%",
"*#+-%-:--%@OOO$ ",
"+=X#*=:+*$+o..  ",
"XXX+#$%=&@Oo..  ",
"++#$+@@@+O...   ",
" *$O.....#..    ",
"   #...O+O.     ",
"                ",
"                ",
"                "
};
