/* XPM */
static char *mini_lambda_xpm[] = {
/* columns rows colors chars-per-pixel */
"16 16 13 1",
"       c None",
"X      c #2D2D2D",
"o      c #494949",
"O      c #575757",
"+      c #686868",
"@      c #787878",
"g      c #999999",
"%      c #A9A9A9",
"&      c #B8B8B8",
"*      c #C7C7C7",
"=      c gray85",
"-      c #ECECEC",
";      c #E3E3E3",
/* pixels */
"    ;*OOOO*=    ",
"   &o@%**&@o&   ",
"  %o&gX@---&o%  ",
" =o&-O@X&---&o= ",
" @@-;&-oo----o@ ",
" O*----gO----*o ",
"*O;----OX=---;O*",
"*O----&XX&----+&",
"*O----+X@g---;O*",
"*o=--*X+%+-=-=o*",
" +%--+X=*o&+*%+ ",
" &o=*X@--+Xo*o& ",
"  @+*&=--=%*+@  ",
"   @O&---=&O@   ",
"    %OO++OO%    ",
"      &***      "
};
