/* XPM */
static char *mini_display_xpm[] = {
/* columns rows colors chars-per-pixel */
"16 16 5 1",
" 	c None",
".	c gray50",
"X	c white",
"o	c black",
"O	c blue",
/* pixels */
"                ",
"  ............  ",
" .XXXXXXXXXXXXo ",
" .Xooooooooo.Xo ",
" .XoOOOOOOOO.Xo ",
" .XoOXXOOOOO.Xo ",
" .XoOOOOOOOO.Xo ",
" .XoOOOOOOOO.Xo ",
" .XoOOOOOOOO.Xo ",
" .XoOOOOOOOO.Xo ",
" .Xo.........Xo ",
" .XXXXXXXXXXXXo ",
"  oooooooooooo  ",
"    .XXXX..o    ",
"  oooooooooooo  ",
"                "
};
