/* XPM */
static char *mini_xemacs_xpm[] = {
/* columns rows colors chars-per-pixel */
"16 16 16 1",
" 	c None",
".	c #b76229",
"X	c #9a6f6f",
"o	c #a65151",
"O	c #de1e1e",
"+	c #fd0303",
"@	c #f17272",
"#	c #e2e22a",
"$	c #dada69",
"%	c #939393",
"&	c #acacac",
"=	c #dfdf98",
"-	c #d3d3d3",
":	c #f2f2f2",
"b	c blue",
"B	c blue4",
/* pixels */
":::::::::::::::&",
":-:&--&--&&-&-&&",
":--&::::::::::&&",
"-::&:::----:::&&",
":@+XOO-+++o-::&&",
":-OO+X=+O%$##=&&",
":-@++%=+++.##$&&",
":-OO+X-+O%&=::&&",
":@+%OO-+++o&&:&&",
":&%BBB%BB&%&BB&&",
":--bbb:BbB-Bbb&&",
"::--B@OB-b:B::&&",
"--:-B:-Bb--B::&&",
":-:bbb:B:b:Bbb&&",
":--BBB&B&B&&BB&&",
"&&&&&&&&&&&&&&&%"
};
