/* XPM */
static char *mini_info_xpm[] = {
/* width height num_colors chars_per_pixel */
"12 14 3 1",
/* colors */
" 	c None",
".	c #cccc00",
"#	c #dddd00",
/* pixels */
"  .#.       ",
"  ###       ",
"  .#.       ",
"            ",
"  ...       ",
".###.       ",
"..##.       ",
" .##.       ",
".###        ",
".##.  .# .# ",
".##.  ######",
"###..  #. #.",
"####. ####. ",
".#..  .# ##."
};
