/* XPM */
static char *mini_calc_xpm[] = {
"15 14 5 1",
" 	c None",
".	c gray50",
"X	c White",
"o	c Black",
"O	c gray85",
" ..............",
".XXXXXXXXXXXXXo",
".XOOoooooooooOo",
".XOOoXXXXXXX.Oo",
".XOO.........Oo",
".XOOOOOOOOOOOOo",
".X.oO.oO.oO.oOo",
".XooOooOooOooOo",
".X.oO.oO.oO.oOo",
".XooOooOooOooOo",
".X.oO.oO.oO.oOo",
".XooOooOooOooOo",
".OOOOOOOOOOOOOo",
" ooooooooooooo "
};
