/* XPM */
static char *mini_xchat1_xpm[] = {
/* columns rows colors chars-per-pixel */
"16 16 16 1",
" 	c None",
".	c #2f2116",
"X	c #5c2a11",
"o	c #795803",
"O	c #676664",
"+	c #932f02",
"@	c #947202",
"#	c #976745",
"$	c #e33b00",
"%	c #eb5707",
"&	c #ab8d77",
"*	c #c79839",
"=	c #f0a104",
"-	c #fdd600",
";	c #a6a19d",
":	c #decec3",
/* pixels */
"  ...      ...  ",
" ..o..    ..o.. ",
"..*-@..  ..@-@..",
".@---@....@---@.",
"..=---@..@-=-=..",
" ..=-=-+o-===.. ",
"  ..@======%..  ",
"  ...:==%=*...O ",
"O:;OO:&:*:;;OO: ",
"O;..&:%:&:%#:O: ",
" ;;&*&%&*:;%&O; ",
" ..%%%+..+$$$.. ",
"..%%%+....+$$$..",
"..$$+..  ..+$$..",
" ..X..    ..X.. ",
"  ...      ...  "
};
