/* XPM */
static char *mini_redhat_xpm[] = {
/* width height num_colors chars_per_pixel */
"24 24 15 1",
/* colors */
" 	c None",
"#	c white",
"a	c #c60021",
"b	c #4a0008",
"c	c #840018",
"e	c #adadad",
"f	c #636363",
"g	c #424242",
"h	c #101010",
"i	c #848484",
"j	c #180000",
"k	c #ad0021",
"l	c #525252",
"m	c #84525a",
"n	c #b52139",
/* pixels */
"                        ",
"         elhhhggf       ",
"       ei########ge     ",
"      eh##jb##jb###l    ",
"     f###aaaaaa#ja##ge  ",
"    i####ccaaaacaa###h  ",
"   h#####b   caaaa####g ",
"   ##jbbjaaaaaaaaak####g",
"  h#baaabbcaaaaaaaa####h",
"  h#caaab   caaaaaa#####",
"  i##caaaacj  kaaaccakj#",
"  i###aaaaaabjbaaaaaaab#",
"  i###baaaaaaaaaaaaaaab#",
"  i###f  caaaaaaaaaaac##",
"  e###i  imcaaaaaaaaa###",
"   fif#e   gbccaaaacb###",
"       ee         h#### ",
"              e   ##### ",
"              ge  ####  ",
"                 he     ",
"                lg      ",
"                i       ",
"                        ",
"                        "
};
