/* XPM */
static char *mini_quake_xpm[] = {
/* columns rows colors chars-per-pixel */
"16 16 3 1", 
" 	c None",
"#	c Gray25",
".	 c Gray85",
/* pixels */
"  ..#.    .#..  ",
" .##.      .##. ",
" .#.        .#. ",
".##.        .##.",
".##. ...... .##.",
".##. .####. .##.",
".##.  .##.  .##.",
" .##. .##. .##. ",
" .###..##..###. ",
"  .##########.  ",
"   .########.   ",
"    ..####..    ",
"      .##.      ",
"      .##.      ",
"      .##.      ",
"      .#.       "
};