/* XPM */
static char *mini_xdvi_xpm[] = {
/* columns rows colors chars-per-pixel */
"16 16 16 1",
" 	c None",
"M	c #030303",
".	c #382205",
"o	c #7e4c00",
"O	c #7a5920",
"+	c #5b6477",
"@	c #6c6c6e",
"#	c #906823",
"$	c #987c51",
"%	c #ad8948",
"&	c #e0a536",
"*	c #cea55c",
"=	c #f7bb44",
"-      c #fecf47",
";      c #d0c5ba",
":      c #f2efed",
/* pixels */
"@M.M@        +M@",
" @.MM+--  & ;M@ ",
"  @M.MO#&-O&MO; ",
"   @MM;:&#&-&-##",
"    +M;M::*=O=# ",
"  *%&*-o:M*&=O=O",
" *-$---=*#*=&&O=",
" -$-%====-==O==O",
" &.#&%===#=O=O=$",
" -#%====#==&O=O=",
"  -%###%=====O=O",
"   -----==O.--O=",
"  @M+   *+MMM-O$",
" @M@      @MMM+ ",
"@M@        @M.M@",
"M@          +MM."
};
