/* XPM */
static char *mini_gnus_xpm[] = {
/* width height num_colors chars_per_pixel */
"16 12 2 1",
/* colors */
" 	c None",
"*	c cyan",
/* pixels */
"     **  **     ",
"    ********    ",
"*  *  **  ***   ",
"***    *   *** *",
"**   *      ****",
"    *        ** ",
"          *     ",
"   *   * **     ",
"     **   *     ",
"  ****    *     ",
"  **      *     ",
"          *     "
};
