/* XPM */
static char *mini_freedesk_xpm[] = {
/* columns rows colors chars-per-pixel */
"16 16 12 1",
"  c #3b80ae",
". c #508db6",
"X c #6199be",
"o c #6a9ec1",
"O c #74a5c5",
"+ c gray73",
"@ c #93b9d2",
"# c #a7c6db",
"$ c #bad3e2",
"% c #d5e4ee",
"& c #fcfdfe",
"* c None",
/* pixels */
"++++++++++++++++",
"+              +",
"+              +",
"+   .       .XO+",
"+.o#%X    .#&&&+",
"+&&&&# ....%&&&+",
"+&&&&%oOoX.@&&&+",
"+&&&&&X    X#o.+",
"+&&%$O.    O.  +",
"+OX. oX   o.   +",
"+     OX .o    +",
"+      .@%X    +",
"+      @&&O    +",
"+      X$O.    +",
"+       .      +",
"++++++++++++++++"
};
