/* XPM */
static char *mini_python_xpm[] = {
/* columns rows colors chars-per-pixel */
"16 16 10 1",
" 	c white",
"* 	c #FED12B",
".	c #FEE052",
"X	c #F2CD3A",
"o	c #396E9A",
"O	c #447EAE",
"+	c #4986B8",
"#	c None",
"$	c #FEE895",
"%	c #A1BED6",
/* pixels */
"####O++OOO######",
"###++ %+OOo#####",
"###ooOOoOoo#####",
"####%%%%ooo#####",
"#+++OOooooo#XX##",
"++++OOOooo%#..*#",
"++++OOoooo#X*.*#",
"+++O%#####X*.**#",
"O++O#X....*.***#",
"OOO#X.....****X#",
"#++#....******##",
"####...$$$$#####",
"####..*...**####",
"####..**$ **####",
"#####X***XX#####",
"################"
};
