/* XPM */
static char *mini_zoom_xpm[] = {
/* columns rows colors chars-per-pixel */
"16 16 3 1",
" 	c None",
"#	c black",
".	c white",
/* pixels */
"                ",
"                ",
"    ####        ",
"   #    #       ",
"  #  .   #      ",
"  # .    #      ",
"  #      #      ",
"  #      #      ",
"   #    ##      ",
"    #######     ",
"         ###    ",
"          ###   ",
"           ###  ",
"            ##  ",
"                ",
"                "
};
