/* XPM */
static char *mini-aim[] = {
/* columns rows colors chars-per-pixel */
"16 16 15 1",
"  c opaque",
". c #6c2b00",
"X c #6c4900",
"o c #4e4e4e",
"O c gray42",
"+ c #8b6300",
"@ c #996c4e",
"# c #99814e",
"$ c #ae934e",
"% c #cb9300",
"& c #e6a800",
"* c #eab424",
"= c #c3a54e",
"- c #fec964",
"; c None",
/* pixels */
";;;;;;;;oo;;;;;;",
";;;;;;;o--o;;;;;",
";;;;;;o---*o;;;;",
";;;;;;o---&o;;;;",
";;;;;;o#--#o;;;;",
";;;;;;;o Xo;;;;;",
";;;;;;o--.@ooo;;",
";;;;;o-------o;;",
";;;;;o--++$ooo;;",
";;;;;o---.O;;;;;",
";;;;o$----oO;;;;",
";;;o#--X%--oo;;;",
";;o=--$oo#--#o;;",
";o---#o;;o#-@O;;",
";;o-oo;;;;ooo;;;",
";;;oO;;;;;;;;;;;"
};
