/* XPM */
static char *mini_clock_xpm[] = {
/* width height num_colors chars_per_pixel */
"13 13 4 1",
/* colors */
" 	c None s None",
"#	c Black",
".	c White",
"*	c gray85",
/* pixels */
"    #####    ",
"  ##.....##  ",
" #*...#...*# ",
" #....#....# ",
"#.....#.....#",
"#.....#.....#",
"#....##.....#",
"#.....##....#",
"#.....#.#...#",
" #.........# ",
" #*.......*# ",
"  ##.....##  ",
"    #####    "
};
