/* XPM */
static char *mini_lyrics_xpm[] = {
/* columns rows colors chars-per-pixel */
"11 12 6 1",
"  c None",
"# c #1E2F59",
". c white",
"X c #576383",
"o c #939BAE",
"O c #C6CAD4",
/* pixels */
"########O  ",
"#.....#o#O ",
"#.XXXX#oo#O",
"#.....####o",
"#.XXXXXoo#o",
"#........#o",
"#.XXXXXX.#o",
"#........#o",
"#.XXXXXX.#o",
"#........#o",
"##########o",
"OXXXXXXXXXX"
};
