/* XPM */
static char *mini_mozilla_xpm[] = {
/* columns rows colors chars-per-pixel */
"16 16 14 1",
" 	c None",
"M	c #020205",
".	c #240e00",
"X	c #272727",
"o	c #490000",
"O	c #710000",
"+	c #663333",
"@	c #676767",
"#	c #8b0000",
"$	c #991919",
"%	c #ad0000",
"&	c #d40000",
"*	c #d6280a",
"=	c #f90000",
/* pixels */
"                ",
"     XoX        ",
"   Xo&%=ooo     ",
"  Mo%oO*OoXM    ",
" MMo=%*%O&@X%   ",
"M M%==#o*%&&%O  ",
" Mo*=#===O%&==%X",
"M #==O===.M@==&+",
" X.%=o#==Ooo@+$O",
"M M#=&=##=&#O@M@",
" MM%===*X.@@$.  ",
"M  o#==&.@      ",
"  @o==#$X       ",
"   X%=&o+       ",
"     #OM@       ",
"                "
};
