/* XPM */
static char *heart_icon[] = {
/* columns rows colors chars-per-pixel */
"13 11 8 1",
"0 c #F30000",
". c #F30009",
"# c #F63D3E",
"$ c #F44545",
"* c #F86A6B",
"= c #F87274",
"; c #FBA6A4",
"  c None",
/* pixels */
" ;#0#; ;#0#; ",
";0.00.#.000.;",
"#0000.000000#",
"00..000...000",
"000.0.000..00",
";000.0000000;",
" *000...00.* ",
"  $0.000..$  ",
"   *00000*   ",
"    =..0=    ",
"     ;0;     "
};
