/* XPM */     
static char *mini_xemacsinfo_xpm[] = {
/* columns rows colors chars-per-pixel */
"16 16 16 1", 
"       c None", 
".      c #b76229",
"X      c #9a6f6f",
"o      c #a65151",
"O      c #de1e1e",
"+      c #fd0303",
"@      c #f17272",
"#      c #e2e22a",
"$      c #dada69",
"%      c #939393",
"&      c #acacac",
"=      c #dfdf98",
"-      c #d3d3d3",
":      c #f2f2f2",
"i	c #000055",
"I      c blue",
/* pixels */  
":::::::::::::::&",
":-:&--&--&&-&-:&",
":--&:::::::::::&",
"-::&:::-iI-::::&",
":@+XOO-+iIo-:::&",
":-OO+X=+iI$##=:&",
":-@++%=+++.##$:&",
":-OO+X-iII&=:::&",
":@+%OO-iIIo&&::&",
":&%&&%iII&%&--:&",
":----:iII--::::&",
"::---@iII-:::::&",
"--:--iII:iI-I::&",
":-:--iIII:iIiI:&",
":-----iI-iI-I-:&",
"&&&&&&&&&&&&&&&%"
};	   
	   
	   