/* XPM */
static char *mini_diskete_xpm[] = {
/* width height num_colors chars_per_pixel */
"16 16 6 1",
" 	c None",
"#	c black",
"*	c #00007b",
"o	c #0000ff",
"O	c #bdbdbd",
".	c white",
/* pixels */
"                ",
" ############## ",
" #o#OOOOOOO#oo# ",
" #o#.......#oo# ",
" #o#.......#oo# ",
" #o#.......#oo# ",
" #o#.......#oo# ",
" #oo#######ooo# ",
" #oooooooooooo# ",
" #ooo******ooo# ",
" #oo*OOOOOO*oo# ",
" #oo*OooOOO*oo# ",
" #oo*OooOOO*oo# ",
" #oo*OooOOO*oo# ",
" O############# ",
"                "
};
