/* XPM */
static char *mini_xfig_xpm[] = {
/* columns rows colors chars-per-pixel */
"16 16 4 1",
" 	c None",
"#	c black",
"o	c #808080",
".	c white",
/* pixels */
"            ##  ",
"           #.#  ",
"          #..#  ",
"         #.o.#  ",
"        #.o#.#  ",
"       #.o##.#  ",
"      #.o# #.#  ",
" o## #.o#  #.#  ",
" #o##.o#####.#  ",
" #.#.........#  ",
"#o.#############",
"#..o...........#",
"#o.#############",
" #.#            ",
" #o#            ",
" o##            "
};
