/* XPM */
static char *tex.xpm[] = {
/* columns rows colors chars-per-pixel */
"16 12 3 1",	 
" 	c None", 
".	c white",
"#	c black",
/* pixels */
"................",
"#######..##...##",
"#..#..#...#...#.",
"...#.......#.#..",
"...#..####..#...",
"...#..#....#.#..",
"...#..#...#...#.",
"..###.##.##...##",
"......#.........",
"......#.........",
"......####......",
"................",
};
