/* XPM */
static char *mini_sh1_xpm[] = {
/* columns rows colors chars-per-pixel */
"16 16 5 1",
" 	c None",
"#	c black",
"X	c blue",
"o	c gray50",
".	c white",
/* pixels */
"                ",
"                ",
"############### ",
"#XXXXXXXXXXXXX#o",
"#XXXXXXXXXXXXX#o",
"#.............#o",
"#.#...........#o",
"#..#..........#o",
"#.#...........#o",
"#.............#o",
"#.............#o",
"#.............#o",
"#.............#o",
"###############o",
" ooooooooooooooo",
"                "
};
