/* XPM */
static char *mini-icq[] = {
/* columns rows colors chars-per-pixel */
"16 16 17 1",
"  c #000100",
". c #013200",
"X c #31000b",
"o c #2c2c00",
"O c #035500",
"+ c #037700",
"@ c #4d0011",
"# c #736f00",
"$ c #068600",
"% c #07ab00",
"& c #09cb00",
"* c #08ed00",
"= c #a00024",
"- c #d1002f",
"; c #878200",
": c #fff82a",
"> c None",
/* pixels */
">>>>   >    >>>>",
">>>  +   %&. >>>",
">>> +*$ $**% >>>",
">>>  *& +**$   >",
">    O* +*%  .  ",
" O**O O..& .**$ ",
" &***$ oo O**%  ",
" O$+O #:: .    >",
">   XX;::oO+++. ",
"> @--@ #o %***& ",
"> ==X $.OO +**& ",
">    $*OO*O O+. ",
">>> O**+.*&    >",
">>> %**+ +& >>>>",
">>> .&&    >>>>>",
">>>>    >>>>>>>>"
};
