/* XPM */
static char *mini_xemacs_xpm[] = {
/* columns rows colors chars-per-pixel */
"16 16 2 1",
" 	s None c None",
".	c #ff2200",
/* pixels */
"                ",
"...      .      ",
" ...    .   ....",
"  ...  .   .    ",
"   .. .    .    ",
"   . ..    .... ",
"  .  ...   .    ",
" .    ...  .    ",
".      ...  ....",
"                ",
".   .  .  .. ...",
".. .. . . .  .  ",
". . . ... .  ...",
".   . . . .    .",
".   . . . .. ...",
"                "
};
