/* XPM */
static char *mini_diskete2_xpm[] = {
/* width height num_colors chars_per_pixel */
"16 16 6 1",
"#	c black",
"*	c #0000ff",
"o	c #7b7b7b",
"O	c #bdbdbd",
"c	c #ff0000",
".	c white",
/* pixels */
"**#*#OOOOOO**#OO",
"*O#*#OOO**O*O*#o",
"*O#*#OOO**O*O*#o",
"**#*#OOO**O***#o",
"**###OOOOOO***#o",
"**************#o",
"**##########**#o",
"*#..........#*#o",
"*#..........#*#o",
"*#cccccccccc#*#o",
"*#..........#*#o",
"*#..........#*#o",
"*#cccccccccc#O#o",
"*#cccccccccc#*#o",
"###############o",
"Oooooooooooooooo"
};
