/* XPM */
static char *mini_netscape_xpm[] = {
/* columns rows colors chars-per-pixel */
"16 16 5 1",
" 	c None",
"#	c black",
"*	c gray50",
"O	c blue",
".	c white",
/* pixels */
"                ",
"                ",
"  ***     ****# ",
"  *..*    *...# ",
"   *..*    *.#  ",
"   *...*   *.#  ",
"   *.#..*  *.#  ",
"   *.#*..* *.#  ",
"   *.# *..**.#  ",
"   *.#  *..*.#  ",
"   *.#   *...#  ",
"   *.#OOOO#..#  ",
"  O#.#########O ",
" O#...#########O",
" ###############",
"                "
};
